<svg xmlns="http://www.w3.org/2000/svg" width="96" height="96"><defs><radialGradient id="a" cx="48" cy="48" r="64.59" gradientUnits="userSpaceOnUse"><stop offset="0" stop-color="#6a5fd7"/><stop offset=".208" stop-color="#6a5fd7"/><stop offset="1" stop-color="#4b43ad"/></radialGradient></defs><rect data-name="Rectangle 20 copy 4" width="96" height="96" rx="48" ry="48" fill="url(#a)"/><path d="M48.635 69a21.064 21.064 0 0 0 19.128-11.838 7.913 7.913 0 0 0 .47-1.883 7.619 7.619 0 0 0-3.021-6.242l-.341-.178c-.023 8.58-7.3 15.554-16.236 15.554h-.046c-8.939 0-16.213-6.974-16.236-15.554l-.341.178a7.619 7.619 0 0 0-3.021 6.242 7.913 7.913 0 0 0 .47 1.883A21.064 21.064 0 0 0 48.589 69h.046zm-.111-36.51l20.483 13.79c.064-.953-.088-4.97-6.173-10.134l-12.095-9.417a4.017 4.017 0 0 0-2.19-.729h-.083a4.018 4.018 0 0 0-2.191.729l-12.1 9.417c-6.085 5.164-6.236 9.181-6.172 10.134l20.483-13.79h.033z" fill="#fff" fill-rule="evenodd" data-name="icon_2 copy 4"/></svg>